<?xml version="1.0" encoding="iso-8859-1"?>
<!-- Generator: Adobe Illustrator 19.0.0, SVG Export Plug-In . SVG Version: 6.00 Build 0)  -->
<svg version="1.1" id="Capa_1" xmlns="http://www.w3.org/2000/svg" xmlns:xlink="http://www.w3.org/1999/xlink" x="0px" y="0px"
	 viewBox="0 0 508.001 508.001" style="enable-background:new 0 0 508.001 508.001;" xml:space="preserve">
<g>
	<g>
		<path d="M321.205,0l-300.7,300.7l185,185l300.7-300.7L321.205,0z M327.905,29.9l147,147h-159L327.905,29.9z M197.405,454.4
			l-147-147l147-12.1V454.4z M53.605,290.7l257.6-257.6l-19.5,238.1L53.605,290.7z M213.705,454.4V294l93.2-7.6l7.6-93.2h160.4
			L213.705,454.4z"/>
	</g>
</g>
<g>
	<g>
		<rect x="197.37" y="176.758" transform="matrix(0.7071 -0.7071 0.7071 0.7071 -70.5748 199.5327)" width="16.4" height="16.4"/>
	</g>
</g>
<g>
	<g>
		<rect x="220.471" y="153.698" transform="matrix(0.7071 -0.7071 0.7071 0.7071 -47.5032 209.1138)" width="16.4" height="16.4"/>
	</g>
</g>
<g>
	<g>
		<rect x="174.269" y="199.958" transform="matrix(0.7071 -0.7071 0.7071 0.7071 -93.7463 189.993)" width="16.4" height="16.4"/>
	</g>
</g>
<g>
	<g>
		
			<rect x="46.474" y="420.367" transform="matrix(0.7071 -0.7071 0.7071 0.7071 -279.2672 182.9225)" width="69.399" height="16.4"/>
	</g>
</g>
<g>
	<g>
		
			<rect x="-0.871" y="408.178" transform="matrix(0.7071 -0.7071 0.7071 0.7071 -286.2139 141.7737)" width="57.799" height="16.4"/>
	</g>
</g>
<g>
	<g>
		
			<rect x="64.543" y="473.568" transform="matrix(0.7071 -0.7071 0.7071 0.7071 -313.2924 207.1807)" width="57.799" height="16.4"/>
	</g>
</g>
<g>
</g>
<g>
</g>
<g>
</g>
<g>
</g>
<g>
</g>
<g>
</g>
<g>
</g>
<g>
</g>
<g>
</g>
<g>
</g>
<g>
</g>
<g>
</g>
<g>
</g>
<g>
</g>
<g>
</g>
</svg>
