<?xml version="1.0" encoding="utf-8"?>
<!-- Generator: Adobe Illustrator 24.0.1, SVG Export Plug-In . SVG Version: 6.00 Build 0)  -->
<svg version="1.1" id="Calque_1" xmlns="http://www.w3.org/2000/svg" xmlns:xlink="http://www.w3.org/1999/xlink" x="0px" y="0px"
	 viewBox="0 0 117.85 96.56" style="enable-background:new 0 0 117.85 96.56;" xml:space="preserve">
<path d="M29.91,10.03c3.13,0.6,6.18,0.94,9.28,0.88c1.83-0.04,3.63-0.24,5.39-0.74c0.35-0.1,0.52-0.25,0.57-0.64
	c0.08-0.73,0.22-1.46,0.35-2.19c0.19-1.06,1.07-1.67,2.16-1.51c0.99,0.15,1.66,1.07,1.51,2.1C49.1,8.49,49.03,9.05,48.9,9.6
	c-0.09,0.39,0.04,0.51,0.42,0.59c1.61,0.34,3.23,0.56,4.87,0.64c3.69,0.17,7.36,0.14,10.99-0.66c0.11-0.03,0.23-0.07,0.39-0.12
	c-0.11-0.68-0.21-1.34-0.31-2.01c-0.17-1.08,0.46-2.03,1.46-2.19c1.13-0.19,2.01,0.44,2.21,1.58c0.12,0.71,0.27,1.42,0.34,2.13
	c0.04,0.36,0.19,0.51,0.52,0.61c1.41,0.41,2.85,0.64,4.31,0.71c3.34,0.17,6.64-0.14,9.92-0.74c0.14-0.02,0.27-0.07,0.41-0.11
	c0-0.37-0.22-0.64-0.35-0.95c-0.43-1.05-0.06-2.09,0.91-2.53C85.97,6.1,87,6.49,87.48,7.53c1.17,2.54,2.32,5.09,3.48,7.64
	c1.14,2.51,2.28,5.02,3.44,7.52c0.24,0.52,0.35,1.05,0.35,1.62c-0.02,6.25-0.03,12.49-0.03,18.74c0,14.28,0.01,28.55,0.04,42.83
	c0,1.09-0.42,1.81-1.29,2.39c-4.04,2.72-8.46,4.13-13.36,3.82c-3.47-0.21-6.63-1.38-9.59-3.15c-0.1-0.06-0.2-0.12-0.3-0.18
	c-5.79,4.61-20.41,4.47-25.98,0c-1.06,0.6-2.12,1.23-3.27,1.71c-6.83,2.86-13.29,1.94-19.47-1.86c-0.19-0.12-0.36-0.25-0.55-0.36
	c-0.91-0.54-1.28-1.31-1.27-2.39c0.02-9.69,0.01-19.38,0.01-29.08c0-10.89,0-21.78,0-32.66c0-0.5,0.12-0.94,0.32-1.38
	c2.32-5.09,4.64-10.18,6.96-15.28c0.51-1.11,1.51-1.52,2.56-1.05c0.95,0.43,1.3,1.53,0.82,2.61C30.22,9.34,30.08,9.65,29.91,10.03z
	 M46.3,28.55c0,0.26,0,0.48,0,0.69c0,3.06,0,6.12,0,9.18c0,7.47,0,14.93,0,22.4c0,7.93,0.01,15.86-0.03,23.78
	c0,0.86,0.3,1.3,0.99,1.69c2.45,1.38,5.12,1.91,7.87,2.09c2.77,0.18,5.53,0.07,8.23-0.6c1.52-0.38,2.98-0.92,4.28-1.81
	c0.32-0.22,0.49-0.46,0.47-0.88c-0.04-0.82-0.01-1.64-0.01-2.45c0-7.91,0-15.81,0-23.72c0-9.87,0-19.74,0-29.61
	c0-0.24,0.05-0.51-0.07-0.74C60.79,30.68,53.58,30.67,46.3,28.55z M23.4,27.08c0,0.26,0,0.48,0,0.7c0,4.52,0,9.05,0,13.57
	c0,6.15-0.02,12.3-0.02,18.44c0,7.79,0.02,15.58,0,23.37c0,2.46-0.04,2.47,2.18,3.52c5.64,2.67,11.11,2.28,16.43-0.92
	c0.43-0.26,0.57-0.56,0.57-1.06c-0.02-4.97-0.02-9.93-0.02-14.9c0-13.7,0.01-27.4,0.01-41.1c0-0.21,0.08-0.44-0.09-0.62
	C33.22,29.27,30.38,29.13,23.4,27.08z M71.87,28.09c0,0.22,0,0.38,0,0.53c0,15.64,0,31.28,0,46.92c0,3.1,0,6.21,0,9.31
	c0,0.27-0.03,0.53,0.28,0.72c2.52,1.57,5.23,2.6,8.2,2.81c3.65,0.26,7.01-0.7,10.13-2.58c0.41-0.25,0.57-0.53,0.55-1.01
	c-0.04-0.68,0-1.36,0-2.04c0-7.85-0.01-15.7-0.01-23.55c0-10.49,0-20.98,0-31.48c0-0.2,0.06-0.43-0.08-0.63
	C84.7,29.36,78.35,29.07,71.87,28.09z M48.27,13.81c-0.03,0.12-0.06,0.21-0.08,0.31c-0.54,3.33-1.06,6.67-1.62,10
	c-0.08,0.48,0.12,0.61,0.52,0.74c6.71,2.1,13.41,2.1,20.13,0.04c0.56-0.17,0.69-0.41,0.6-0.97c-0.43-2.56-0.83-5.13-1.24-7.69
	c-0.13-0.82-0.28-1.64-0.41-2.43C60.17,14.94,54.25,14.94,48.27,13.81z M44.41,14.08c-5.43,1.06-10.75,0.49-16.11-0.54
	c-1.46,3.2-2.91,6.39-4.36,9.57c0.26,0.25,0.53,0.32,0.79,0.42c2.45,1.04,5.03,1.41,7.66,1.54c3.33,0.17,6.63-0.15,9.9-0.71
	c0.37-0.06,0.53-0.22,0.58-0.61c0.15-1.09,0.35-2.17,0.52-3.25C43.73,18.38,44.06,16.28,44.41,14.08z M70,14.06
	c0.53,3.28,1.05,6.45,1.53,9.62c0.07,0.48,0.28,0.62,0.72,0.68c1.78,0.26,3.56,0.51,5.36,0.63c3.21,0.22,6.39,0.11,9.54-0.64
	c1.14-0.27,2.25-0.66,3.3-1.18c-0.02-0.11-0.01-0.18-0.04-0.23c-1.38-3.04-2.77-6.07-4.14-9.11c-0.15-0.34-0.34-0.29-0.61-0.23
	c-2.63,0.53-5.28,0.88-7.97,1C75.14,14.73,72.6,14.6,70,14.06z"/>
</svg>
